<?xml version="1.0" standalone="no"?>
<!DOCTYPE svg PUBLIC "-//W3C//DTD SVG 20010904//EN"
 "http://www.w3.org/TR/2001/REC-SVG-20010904/DTD/svg10.dtd">
<svg version="1.0" xmlns="http://www.w3.org/2000/svg"
 width="512.000000pt" height="512.000000pt" viewBox="0 0 512.000000 512.000000"
 preserveAspectRatio="xMidYMid meet">
<metadata>
Created by potrace 1.14, written by Peter Selinger 2001-2017
</metadata>
<g transform="translate(0.000000,512.000000) scale(0.100000,-0.100000)"
fill="#000000" stroke="none">
<path d="M2348 5115 c-2 -2 -34 -6 -73 -9 -38 -4 -81 -8 -95 -10 -14 -3 -43
-7 -65 -10 -198 -25 -445 -101 -642 -198 -566 -277 -1042 -806 -1293 -1438
-38 -97 -96 -269 -104 -311 -5 -28 -10 -52 -30 -139 -8 -36 -17 -90 -21 -120
-4 -30 -10 -82 -15 -115 -11 -92 -11 -962 0 -1015 26 -115 117 -239 213 -292
23 -13 89 -43 147 -67 58 -24 119 -49 135 -56 17 -7 120 -50 230 -95 110 -45
214 -88 230 -95 17 -7 44 -18 60 -25 343 -141 724 -298 810 -333 61 -25 243
-100 405 -167 454 -188 1131 -467 1265 -522 204 -83 256 -94 435 -92 92 2 133
7 203 28 246 73 436 232 545 456 30 60 72 173 72 191 0 4 -477 246 -1060 537
-582 292 -1073 540 -1090 552 -75 53 -141 144 -168 229 -15 49 -17 105 -17
476 0 379 2 425 18 475 54 162 217 294 382 307 48 4 369 -28 525 -52 14 -2 48
-7 75 -10 28 -3 61 -8 75 -10 14 -2 50 -7 80 -10 70 -8 447 -55 480 -60 14 -2
70 -9 125 -15 55 -6 111 -13 125 -15 14 -2 66 -9 115 -15 50 -6 104 -13 120
-15 17 -2 53 -7 80 -10 28 -4 64 -8 80 -11 64 -8 293 -36 344 -41 30 -3 51 -2
48 3 -3 5 -8 25 -11 44 -11 68 -17 96 -32 150 -8 30 -16 62 -19 70 -9 36 -75
221 -100 280 -82 196 -232 448 -365 615 -86 108 -306 326 -410 406 -240 186
-508 329 -795 424 -96 32 -271 77 -345 89 -55 9 -160 25 -215 32 -50 6 -451
14 -457 9z m-996 -2131 c29 -8 85 -29 123 -48 366 -181 447 -662 161 -951
-125 -127 -271 -186 -443 -180 -98 4 -104 5 -186 34 -90 31 -145 68 -223 146
-233 235 -231 601 5 835 86 86 170 135 276 162 82 20 211 21 287 2z"/>
<path d="M1103 2679 c-106 -40 -182 -146 -189 -262 -11 -212 186 -362 393
-298 41 12 115 64 140 99 60 84 77 197 42 289 -25 65 -93 137 -157 166 -65 29
-161 31 -229 6z"/>
<path d="M2802 2944 c-18 -9 -43 -31 -55 -48 -22 -31 -22 -36 -24 -417 l-3
-386 28 -38 c20 -29 56 -53 150 -100 l122 -62 0 523 c0 287 -3 525 -7 527 -5
3 -46 8 -93 11 -69 5 -91 3 -118 -10z"/>
<path d="M3320 2325 l0 -582 805 -402 c623 -311 814 -402 844 -403 66 -1 124
43 142 106 5 17 9 392 9 833 l0 803 -22 4 c-13 3 -50 8 -83 11 -89 10 -126 14
-165 20 -19 2 -53 7 -75 10 -22 2 -92 11 -155 19 -63 8 -142 18 -175 21 -33 4
-67 8 -75 10 -8 2 -46 7 -85 10 -38 3 -77 8 -85 10 -8 2 -42 7 -75 10 -33 3
-67 8 -75 10 -8 2 -44 7 -80 10 -36 3 -72 8 -80 10 -8 2 -44 7 -80 10 -36 3
-72 8 -80 10 -8 2 -44 7 -80 10 -36 3 -72 8 -80 10 -8 2 -42 7 -75 10 -33 3
-86 10 -117 14 l-58 8 0 -582z"/>
</g>
</svg>
